# xmcd CD database file
#
# Track frame offsets:
#	150
#	5769
#	41299
#	49032
#	92501
#	121271
#	124440
#	180702
#	223311
#
# Disc length: 3053 seconds
#
# Revision: 0
# Processed by: cddbd v1.5.2PL0 Copyright (c) Steve Scherf et al.
# Submitted via: CDex 1.70beta2
#
DISCID=7b0beb09
DTITLE=Haki R Madhubuti And Nation - Rise Vision Comin
DYEAR=1974
DGENRE=Jazz
TTITLE0=We Are A Nation
TTITLE1=Talking Stick
TTITLE2=The Family
TTITLE3=Black Woman
TTITLE4=Walk The Way Of The New World
TTITLE5=Cllectivity
TTITLE6=Rise,Vision,Comin
TTITLE7=Black Man
TTITLE8=We Wound Each Other
EXTD=YEAR: 1974
EXTT0=
EXTT1=
EXTT2=
EXTT3=
EXTT4=
EXTT5=
EXTT6=
EXTT7=
EXTT8=
PLAYORDER=
